<?xml version="1.0" encoding="UTF-8" standalone="no"?>
<svg
   xmlns:svg="http://www.w3.org/2000/svg"
   xmlns="http://www.w3.org/2000/svg"
   width="1100.0"
   height="520.0"

>
    <g transform="scale(3.197674417365243, -3.197674417365243)   translate(120.25454555696969,-41.25454555696974)" stroke-width="0.6"  fill="none">
       <!-- hidden lines -->
       <g  stroke="rgb(170,170,170)" fill="none" stroke-dasharray="0.6,0.6" >

       </g>

       <!-- solid lines -->
       <g  stroke="rgb(20,20,20)" fill="none">
			<path d="M-55.0,35.0 L-55.0,34.122476926363824 L-55.0,31.53391037658467 L-55.0,27.364101886381043 L-55.0,21.822143065055677 L-55.0,15.185930869114536 L-55.0,7.788232688471005 L-55.0,2.1431318985078682e-15 L-55.0,-7.788232688471002 L-55.0,-15.185930869114532 L-55.0,-21.822143065055673 L-55.0,-27.364101886381043 L-55.0,-31.533910376584664 L-55.0,-34.122476926363824 L-55.0,-34.999999999999986 " />
			<path d="M-55.0,35.0 L55.0,35.0 " />
			<path d="M55.0,35.0 L55.0,34.122476926363824 L55.0,31.53391037658467 L55.0,27.364101886381043 L55.0,21.822143065055677 L55.0,15.185930869114536 L55.0,7.788232688471005 L55.0,2.1431318985078682e-15 L55.0,-7.788232688471002 L55.0,-15.185930869114532 L55.0,-21.822143065055673 L55.0,-27.364101886381043 L55.0,-31.533910376584664 L55.0,-34.122476926363824 L55.0,-34.999999999999986 " />
			<path d="M22.5,-13.000000000000004 L22.5,-11.215047337796145 L22.5,-9.396957528892996 L22.5,-7.551102490759603 L22.5,-5.68293617890252 L22.5,-3.7979784720409477 L22.5,-1.9017988624982656 L22.5,-6.860188507453237e-14 L22.5,1.9017988624981286 L22.5,3.7979784720408114 L22.5,5.682936178902385 L22.5,7.551102490759469 L22.5,9.396957528892864 L22.5,11.215047337796015 L22.5,12.999999999999702 " />
			<path d="M48.5,-13.0 L22.5,-13.0 " />
			<path d="M48.5,13.0 L22.5,13.0 " />
			<path d="M48.5,-13.000000000000004 L48.5,-11.215047337796145 L48.5,-9.396957528892996 L48.5,-7.551102490759603 L48.5,-5.68293617890252 L48.5,-3.7979784720409477 L48.5,-1.9017988624982656 L48.5,-6.860188507453237e-14 L48.5,1.9017988624981286 L48.5,3.7979784720408114 L48.5,5.682936178902385 L48.5,7.551102490759469 L48.5,9.396957528892864 L48.5,11.215047337796015 L48.5,12.999999999999702 " />
			<path d="M-48.5,-13.000000000000004 L-48.5,-11.215047337796145 L-48.5,-9.396957528892996 L-48.5,-7.551102490759603 L-48.5,-5.68293617890252 L-48.5,-3.7979784720409477 L-48.5,-1.9017988624982656 L-48.5,-6.860188507453237e-14 L-48.5,1.9017988624981286 L-48.5,3.7979784720408114 L-48.5,5.682936178902385 L-48.5,7.551102490759469 L-48.5,9.396957528892864 L-48.5,11.215047337796015 L-48.5,12.999999999999702 " />
			<path d="M-22.5,-13.0 L-48.5,-13.0 " />
			<path d="M-22.5,13.0 L-48.5,13.0 " />
			<path d="M-22.5,-13.000000000000004 L-22.5,-11.215047337796145 L-22.5,-9.396957528892996 L-22.5,-7.551102490759603 L-22.5,-5.68293617890252 L-22.5,-3.7979784720409477 L-22.5,-1.9017988624982656 L-22.5,-6.860188507453237e-14 L-22.5,1.9017988624981286 L-22.5,3.7979784720408114 L-22.5,5.682936178902385 L-22.5,7.551102490759469 L-22.5,9.396957528892864 L-22.5,11.215047337796015 L-22.5,12.999999999999702 " />
			<path d="M41.25,0.0 L41.24602649146074,0.21372776944378324 L41.23411145758907,0.42716014789036216 L41.2142713660333,0.6400021525994539 L41.1865336375841,0.8519596167803717 L41.15093660827655,1.0627395961569819 L41.107529476406285,1.2720507738430378 L41.056372234533,1.4796038629683141 L40.99753558656537,1.6851120064990752 L40.93110085004187,1.8882911737002925 L40.85715984374264,2.0888605526916613 L40.77581476078765,2.2865429385548737 L40.687178027396634,2.481065116455742 L40.59137214750596,2.672158239251669 L40.488529533457125,2.8595581990625774 L40.37879232299106,3.0430059922917487 L40.262312182800926,3.2222480775920843 L40.13925009891514,3.397036726283051 L40.009776154200196,3.5671303647339907 L39.874069293290866,3.732293908240606 L39.73231707527259,3.8922990859331565 L39.584715414457975,4.046924756267335 L39.431468309615596,4.195957212661762 L39.272787562025364,4.339190478859704 L39.10889248275007,4.476426593606781 L38.94000958952783,4.607475884251221 L38.76637229370415,4.732157228888522 L38.588220577636484,4.850298306688216 L38.40580066301704,4.961735836056744 L38.21936467057225,5.0663158003073105 L38.029170271609225,5.16389366052479 L37.835480331890906,5.254334555331508 L37.63856254833187,5.337513487277788 L37.438689079017166,5.413315495599676 L37.236136167055356,5.481635815105045 L37.03118375878567,5.542380020968517 L36.82411511686705,5.595464159235065 L36.615216428783604,5.640814862851922 L36.40477641130785,5.678369453068449 L36.19308591146812,5.70807602606381 L35.9804375045718,5.729893524682708 L35.76712508984001,5.743791795180076 L35.55344348421238,5.749751628896265 L35.33968801488357,5.747764788805125 L35.12615411113452,5.737834020898337 L34.913136896022614,5.7199730503901876 L34.700930778495064,5.6942065627480964 L34.48982904648929,5.660570169575081 L34.28012346158261,5.619110359391316 L34.07210385575149,5.5698844333828195 L33.86605773079772,5.51296042620606 L33.66226986099502,5.448417011957944 L33.46102189950543,5.376343395441139 L33.262591989109296,5.296839188875014 L33.06725437778694,5.210014274222592 L32.87527903968326,5.115988651323803 L32.68693130197923,5.014892272044906 L32.50247147818585,4.9068648606733305 L32.322154508367476,4.792055720806138 L32.14622960679169,4.670623528999033 L31.974939917492826,4.542736115461089 L31.808522178225004,4.408570232098309 L31.6472063932693,4.268311308226596 L31.49121551554711,4.122153194291761 L31.340765138479195,3.970297893950781 L31.19606319801617,3.8129552848845725 L31.05730968525232,3.650342828728166 L30.92469637001993,3.482685270519172 L30.798406535846134,3.310214328079926 L30.678614726638582,3.133168371762622 L30.565486505450085,2.951792095000049 L30.45917822565557,2.7663361761172633 L30.359836814857672,2.5770569318715992 L30.267599571819552,2.3842159631998623 L30.182593976705682,2.188079793662309 L30.104937514892782,1.9889195010831187 L30.034737514594468,1.7870103428964639 L29.972090998524003,1.5826313757159822 L29.917084549800197,1.3760650696534442 L29.86979419228173,1.167596917919654 L29.83028528549536,0.9575150422471608 L29.798612434303173,0.7461097946801136 L29.774819413433747,0.5336733562816268 L29.758939106981554,0.32049933331327485 L29.750993462958178,0.10688235144483646 L29.750993462958178,-0.1068823514448759 L29.758939106981558,-0.32049933331331426 L29.77481941343375,-0.5336733562816661 L29.798612434303177,-0.7461097946801527 L29.830285285495368,-0.9575150422471995 L29.869794192281738,-1.1675969179196926 L29.917084549800208,-1.3760650696534826 L29.972090998524017,-1.5826313757160202 L30.03473751459448,-1.7870103428965012 L30.104937514892796,-1.9889195010831557 L30.182593976705697,-2.1880797936623457 L30.267599571819567,-2.3842159631998983 L30.359836814857687,-2.5770569318716348 L30.45917822565559,-2.766336176117298 L30.565486505450103,-2.951792095000083 L30.678614726638603,-3.1331683717626553 L30.798406535846155,-3.310214328079958 L30.924696370019955,-3.4826852705192035 L31.057309685252342,-3.6503428287281965 L31.196063198016194,-3.812955284884602 L31.34076513847922,-3.97029789395081 L31.49121551554714,-4.122153194291789 L31.64720639326933,-4.268311308226622 L31.808522178225033,-4.408570232098333 L31.974939917492854,-4.5427361154611114 L32.14622960679172,-4.670623528999054 L32.322154508367504,-4.792055720806158 L32.50247147818589,-4.90686486067335 L32.686931301979264,-5.014892272044925 L32.87527903968329,-5.11598865132382 L33.067254377786966,-5.210014274222607 L33.26259198910933,-5.296839188875028 L33.46102189950547,-5.376343395441152 L33.66226986099505,-5.4484170119579565 L33.866057730797756,-5.512960426206072 L34.072103855751536,-5.56988443338283 L34.280123461582654,-5.619110359391325 L34.489829046489334,-5.660570169575089 L34.700930778495106,-5.694206562748103 L34.91313689602266,-5.719973050390192 L35.12615411113457,-5.73783402089834 L35.33968801488362,-5.747764788805126 L35.55344348421243,-5.749751628896264 L35.76712508984006,-5.7437917951800745 L35.98043750457185,-5.729893524682703 L36.19308591146817,-5.708076026063803 L36.40477641130791,-5.678369453068441 L36.61521642878366,-5.640814862851911 L36.824115116867105,-5.595464159235052 L37.03118375878573,-5.542380020968501 L37.23613616705541,-5.481635815105026 L37.43868907901723,-5.4133154955996545 L37.63856254833193,-5.337513487277764 L37.83548033189096,-5.254334555331481 L38.02917027160928,-5.163893660524761 L38.219364670572304,-5.066315800307279 L38.405800663017104,-4.961735836056709 L38.58822057763655,-4.850298306688178 L38.76637229370421,-4.732157228888482 L38.94000958952789,-4.607475884251177 L39.10889248275013,-4.4764265936067344 L39.27278756202542,-4.3391904788596545 L39.43146830961565,-4.1959572126617095 L39.58471541445803,-4.04692475626728 L39.73231707527264,-3.8922990859330984 L39.874069293290916,-3.732293908240545 L40.00977615420025,-3.567130364733927 L40.13925009891519,-3.397036726282984 L40.262312182800976,-3.222248077592014 L40.3787923229911,-3.043005992291676 L40.48852953345717,-2.8595581990625023 L40.591372147506,-2.6721582392515915 L40.687178027396676,-2.4810651164556616 L40.77581476078768,-2.2865429385547915 L40.85715984374267,-2.088860552691577 L40.9311008500419,-1.8882911737002057 L40.9975355865654,-1.6851120064989866 L41.05637223453302,-1.4796038629682235 L41.107529476406306,-1.2720507738429454 L41.15093660827657,-1.0627395961568875 L41.18653363758411,-0.8519596167802759 L41.21427136603331,-0.6400021525993568 L41.23411145758908,-0.4271601478902637 L41.24602649146074,-0.21372776944368357 L41.25,1.0073217444649495e-13 " />
			<path d="M-29.75,0.0 L-29.753973508539264,0.21372776944378324 L-29.765888542410927,0.42716014789036216 L-29.785728633966702,0.6400021525994539 L-29.8134663624159,0.8519596167803717 L-29.849063391723448,1.0627395961569819 L-29.892470523593715,1.2720507738430378 L-29.943627765467,1.4796038629683141 L-30.00246441343463,1.6851120064990752 L-30.068899149958124,1.8882911737002925 L-30.142840156257357,2.0888605526916613 L-30.22418523921235,2.2865429385548737 L-30.312821972603366,2.481065116455742 L-30.408627852494043,2.672158239251669 L-30.51147046654287,2.8595581990625774 L-30.62120767700894,3.0430059922917487 L-30.737687817199074,3.2222480775920843 L-30.86074990108486,3.397036726283051 L-30.9902238457998,3.5671303647339907 L-31.125930706709134,3.732293908240606 L-31.26768292472741,3.8922990859331565 L-31.415284585542025,4.046924756267335 L-31.5685316903844,4.195957212661762 L-31.727212437974636,4.339190478859704 L-31.891107517249925,4.476426593606781 L-32.05999041047217,4.607475884251221 L-32.23362770629585,4.732157228888522 L-32.411779422363516,4.850298306688216 L-32.59419933698296,4.961735836056744 L-32.78063532942775,5.0663158003073105 L-32.970829728390775,5.16389366052479 L-33.164519668109094,5.254334555331508 L-33.36143745166813,5.337513487277788 L-33.561310920982834,5.413315495599676 L-33.763863832944644,5.481635815105045 L-33.96881624121433,5.542380020968517 L-34.17588488313295,5.595464159235065 L-34.384783571216396,5.640814862851922 L-34.59522358869215,5.678369453068449 L-34.80691408853188,5.70807602606381 L-35.0195624954282,5.729893524682708 L-35.23287491015999,5.743791795180076 L-35.44655651578762,5.749751628896265 L-35.66031198511643,5.747764788805125 L-35.87384588886548,5.737834020898337 L-36.086863103977386,5.7199730503901876 L-36.299069221504936,5.6942065627480964 L-36.51017095351071,5.660570169575081 L-36.71987653841739,5.619110359391316 L-36.92789614424851,5.5698844333828195 L-37.13394226920228,5.51296042620606 L-37.33773013900498,5.448417011957944 L-37.53897810049457,5.376343395441139 L-37.737408010890704,5.296839188875014 L-37.93274562221306,5.210014274222592 L-38.12472096031674,5.115988651323803 L-38.31306869802077,5.014892272044906 L-38.49752852181415,4.9068648606733305 L-38.677845491632524,4.792055720806138 L-38.85377039320831,4.670623528999033 L-39.025060082507174,4.542736115461089 L-39.191477821774996,4.408570232098309 L-39.3527936067307,4.268311308226596 L-39.50878448445289,4.122153194291761 L-39.65923486152081,3.970297893950781 L-39.80393680198383,3.8129552848845725 L-39.94269031474768,3.650342828728166 L-40.07530362998007,3.482685270519172 L-40.201593464153866,3.310214328079926 L-40.321385273361415,3.133168371762622 L-40.43451349454992,2.951792095000049 L-40.54082177434443,2.7663361761172633 L-40.64016318514233,2.5770569318715992 L-40.73240042818045,2.3842159631998623 L-40.81740602329432,2.188079793662309 L-40.89506248510722,1.9889195010831187 L-40.96526248540553,1.7870103428964639 L-41.027909001476,1.5826313757159822 L-41.082915450199806,1.3760650696534442 L-41.13020580771827,1.167596917919654 L-41.169714714504636,0.9575150422471608 L-41.20138756569683,0.7461097946801136 L-41.22518058656625,0.5336733562816268 L-41.24106089301844,0.32049933331327485 L-41.24900653704182,0.10688235144483646 L-41.24900653704182,-0.1068823514448759 L-41.24106089301844,-0.32049933331331426 L-41.225180586566246,-0.5336733562816661 L-41.20138756569682,-0.7461097946801527 L-41.169714714504636,-0.9575150422471995 L-41.13020580771826,-1.1675969179196926 L-41.08291545019979,-1.3760650696534826 L-41.02790900147598,-1.5826313757160202 L-40.96526248540552,-1.7870103428965012 L-40.8950624851072,-1.9889195010831557 L-40.8174060232943,-2.1880797936623457 L-40.73240042818043,-2.3842159631998983 L-40.64016318514231,-2.5770569318716348 L-40.54082177434441,-2.766336176117298 L-40.4345134945499,-2.951792095000083 L-40.3213852733614,-3.1331683717626553 L-40.201593464153845,-3.310214328079958 L-40.07530362998005,-3.4826852705192035 L-39.94269031474766,-3.6503428287281965 L-39.80393680198381,-3.812955284884602 L-39.65923486152078,-3.97029789395081 L-39.50878448445286,-4.122153194291789 L-39.35279360673067,-4.268311308226622 L-39.19147782177497,-4.408570232098333 L-39.025060082507146,-4.5427361154611114 L-38.85377039320828,-4.670623528999054 L-38.677845491632496,-4.792055720806158 L-38.49752852181411,-4.90686486067335 L-38.313068698020736,-5.014892272044925 L-38.12472096031671,-5.11598865132382 L-37.932745622213034,-5.210014274222607 L-37.73740801089067,-5.296839188875028 L-37.53897810049453,-5.376343395441152 L-37.33773013900495,-5.4484170119579565 L-37.133942269202244,-5.512960426206072 L-36.927896144248464,-5.56988443338283 L-36.719876538417346,-5.619110359391325 L-36.510170953510666,-5.660570169575089 L-36.299069221504894,-5.694206562748103 L-36.08686310397734,-5.719973050390192 L-35.87384588886543,-5.73783402089834 L-35.66031198511638,-5.747764788805126 L-35.44655651578757,-5.749751628896264 L-35.23287491015994,-5.7437917951800745 L-35.01956249542815,-5.729893524682703 L-34.80691408853183,-5.708076026063803 L-34.59522358869209,-5.678369453068441 L-34.38478357121634,-5.640814862851911 L-34.175884883132895,-5.595464159235052 L-33.96881624121427,-5.542380020968501 L-33.76386383294459,-5.481635815105026 L-33.56131092098277,-5.4133154955996545 L-33.36143745166807,-5.337513487277764 L-33.16451966810904,-5.254334555331481 L-32.97082972839072,-5.163893660524761 L-32.780635329427696,-5.066315800307279 L-32.594199336982896,-4.961735836056709 L-32.41177942236345,-4.850298306688178 L-32.23362770629579,-4.732157228888482 L-32.05999041047211,-4.607475884251177 L-31.891107517249868,-4.4764265936067344 L-31.72721243797458,-4.3391904788596545 L-31.568531690384344,-4.1959572126617095 L-31.415284585541972,-4.04692475626728 L-31.26768292472736,-3.8922990859330984 L-31.12593070670908,-3.732293908240545 L-30.99022384579975,-3.567130364733927 L-30.860749901084812,-3.397036726282984 L-30.737687817199028,-3.222248077592014 L-30.621207677008893,-3.043005992291676 L-30.51147046654283,-2.8595581990625023 L-30.408627852494003,-2.6721582392515915 L-30.312821972603327,-2.4810651164556616 L-30.224185239212314,-2.2865429385547915 L-30.142840156257325,-2.088860552691577 L-30.068899149958096,-1.8882911737002057 L-30.002464413434602,-1.6851120064989866 L-29.943627765466974,-1.4796038629682235 L-29.892470523593694,-1.2720507738429454 L-29.84906339172343,-1.0627395961568875 L-29.813466362415888,-0.8519596167802759 L-29.78572863396669,-0.6400021525993568 L-29.76588854241092,-0.4271601478902637 L-29.75397350853926,-0.21372776944368357 L-29.75,1.0073217444649495e-13 " />
			<path d="M-32.0,0.0 L-32.00396431285947,0.16653670538309803 L-32.015848270994205,0.3326961515646393 L-32.035624953416736,0.498101933956498 L-32.06324955958053,0.6623793552614357 L-32.098659510867606,0.8251562742829952 L-32.14177459234926,0.9860639489450038 L-32.19249713449866,1.1447378716109755 L-32.250712234443746,1.3008185948111464 L-32.316288016259186,1.4539525455066022 L-32.389075929707765,1.6037928260459362 L-32.46891108675447,1.7499999999999998 L-32.55561263509087,1.8922428610945914 L-32.648984167823826,2.0301991834991937 L-32.748814168400244,2.1635564517721186 L-32.854876489760095,2.2920125688084982 L-32.966930866632254,2.4152765401873926 L-33.08472345981261,2.533069133367746 L-33.207987431191505,2.645123510239905 L-33.336443548227884,2.7511858315997566 L-33.46980081650081,2.851015832176176 L-33.60775713890541,2.9443873649091348 L-33.75,3.0310889132455356 L-33.89620717395407,3.1109240702922327 L-34.0460474544934,3.1837119837408148 L-34.19918140518885,3.2492877655562546 L-34.35526212838903,3.3075028655013403 L-34.513936051055,3.3582254076507416 L-34.674843725717004,3.4013404891323966 L-34.837620644738564,3.4367504404194738 L-35.0018980660435,3.464375046583265 L-35.16730384843536,3.4841517290057964 L-35.333463294616905,3.496035687140528 L-35.5,3.5 L-35.6665367053831,3.496035687140528 L-35.83269615156464,3.4841517290057955 L-35.9981019339565,3.464375046583264 L-36.162379355261436,3.436750440419473 L-36.325156274282996,3.401340489132395 L-36.48606394894501,3.35822540765074 L-36.64473787161098,3.3075028655013385 L-36.80081859481115,3.2492877655562524 L-36.95395254550661,3.1837119837408125 L-37.10379282604594,3.11092407029223 L-37.25,3.031088913245533 L-37.392242861094594,2.944387364909132 L-37.53019918349919,2.8510158321761736 L-37.663556451772116,2.751185831599755 L-37.7920125688085,2.645123510239903 L-37.91527654018739,2.533069133367745 L-38.033069133367746,2.4152765401873917 L-38.145123510239905,2.2920125688084982 L-38.251185831599756,2.163556451772119 L-38.351015832176174,2.030199183499195 L-38.44438736490913,1.8922428610945934 L-38.53108891324553,1.7500000000000027 L-38.61092407029223,1.6037928260459395 L-38.683711983740814,1.4539525455066062 L-38.749287765556254,1.3008185948111508 L-38.80750286550134,1.1447378716109808 L-38.85822540765074,0.9860639489450097 L-38.901340489132394,0.8251562742830018 L-38.93675044041947,0.6623793552614429 L-38.964375046583264,0.49810193395650576 L-38.984151729005795,0.3326961515646478 L-38.99603568714053,0.16653670538310716 L-39.0,9.754499786552888e-15 L-38.99603568714053,-0.16653670538308768 L-38.984151729005795,-0.3326961515646284 L-38.964375046583264,-0.49810193395648655 L-38.93675044041947,-0.6623793552614237 L-38.9013404891324,-0.8251562742829829 L-38.85822540765074,-0.986063948944991 L-38.80750286550134,-1.1447378716109624 L-38.74928776555626,-1.3008185948111328 L-38.68371198374082,-1.4539525455065885 L-38.61092407029224,-1.6037928260459222 L-38.53108891324554,-1.7499999999999856 L-38.44438736490915,-1.892242861094577 L-38.35101583217619,-2.030199183499179 L-38.25118583159977,-2.1635564517721035 L-38.14512351023992,-2.2920125688084836 L-38.03306913336776,-2.415276540187378 L-37.915276540187406,-2.5330691333677318 L-37.79201256880852,-2.6451235102398902 L-37.66355645177214,-2.7511858315997437 L-37.53019918349921,-2.851015832176164 L-37.39224286109461,-2.9443873649091246 L-37.250000000000014,-3.0310889132455268 L-37.103792826045954,-3.1109240702922247 L-36.95395254550662,-3.183711983740808 L-36.80081859481116,-3.249287765556249 L-36.644737871610985,-3.3075028655013354 L-36.48606394894502,-3.358225407650737 L-36.325156274283,-3.401340489132393 L-36.16237935526144,-3.4367504404194715 L-35.998101933956505,-3.464375046583263 L-35.83269615156465,-3.484151729005795 L-35.66653670538311,-3.4960356871405276 L-35.50000000000001,-3.5 L-35.333463294616905,-3.4960356871405285 L-35.16730384843537,-3.4841517290057964 L-35.00189806604351,-3.4643750465832652 L-34.837620644738564,-3.4367504404194738 L-34.674843725717004,-3.4013404891323966 L-34.513936051055,-3.358225407650741 L-34.35526212838902,-3.30750286550134 L-34.19918140518885,-3.2492877655562538 L-34.0460474544934,-3.183711983740814 L-33.89620717395406,-3.110924070292231 L-33.75,-3.0310889132455334 L-33.607757138905406,-2.944387364909132 L-33.4698008165008,-2.851015832176172 L-33.33644354822788,-2.751185831599752 L-33.2079874311915,-2.645123510239899 L-33.0847234598126,-2.5330691333677398 L-32.96693086663225,-2.4152765401873855 L-32.85487648976009,-2.2920125688084902 L-32.74881416840024,-2.1635564517721093 L-32.64898416782382,-2.030199183499184 L-32.55561263509086,-1.892242861094581 L-32.46891108675446,-1.7499999999999882 L-32.38907592970776,-1.6037928260459233 L-32.31628801625918,-1.4539525455065883 L-32.25071223444374,-1.300818594811131 L-32.19249713449865,-1.1447378716109593 L-32.14177459234925,-0.9860639489449864 L-32.0986595108676,-0.8251562742829766 L-32.06324955958052,-0.6623793552614159 L-32.03562495341673,-0.498101933956477 L-32.0158482709942,-0.3326961515646173 L-32.00396431285947,-0.166536705383075 L-32.0,2.401174299220036e-14 " />
			<path d="M39.0,0.0 L38.99616590336278,0.1637801689715782 " />
			<path d="M38.999999996342865,-0.00015999966739566052 L39.0,-6.039613253960852e-14 " />
			<path d="M-32.0,0.0 L-32.00383409663723,0.16378016897157754 " />
			<path d="M-32.00000000365714,-0.0001599996673986026 L-32.0,-6.039613253960852e-14 " />
			<path d="M39.0,0.0 L38.99603568714053,0.16653670538309803 L38.984151729005795,0.3326961515646393 L38.964375046583264,0.498101933956498 L38.93675044041947,0.6623793552614357 L38.901340489132394,0.8251562742829952 L38.85822540765074,0.9860639489450038 L38.80750286550134,1.1447378716109755 L38.749287765556254,1.3008185948111464 L38.683711983740814,1.4539525455066022 L38.610924070292235,1.6037928260459362 L38.53108891324553,1.7499999999999998 L38.44438736490913,1.8922428610945914 L38.351015832176174,2.0301991834991937 L38.251185831599756,2.1635564517721186 L38.145123510239905,2.2920125688084982 L38.033069133367746,2.4152765401873926 L37.91527654018739,2.533069133367746 L37.792012568808495,2.645123510239905 L37.663556451772116,2.7511858315997566 L37.53019918349919,2.851015832176176 L37.39224286109459,2.9443873649091348 L37.25,3.0310889132455356 L37.10379282604593,3.1109240702922327 L36.9539525455066,3.1837119837408148 L36.80081859481115,3.2492877655562546 L36.64473787161097,3.3075028655013403 L36.486063948945,3.3582254076507416 L36.325156274282996,3.4013404891323966 L36.162379355261436,3.4367504404194738 L35.9981019339565,3.464375046583265 L35.83269615156464,3.4841517290057964 L35.666536705383095,3.496035687140528 L35.5,3.5 L35.3334632946169,3.496035687140528 L35.16730384843536,3.4841517290057955 L35.0018980660435,3.464375046583264 L34.837620644738564,3.436750440419473 L34.674843725717004,3.401340489132395 L34.51393605105499,3.35822540765074 L34.35526212838902,3.3075028655013385 L34.19918140518885,3.2492877655562524 L34.04604745449339,3.1837119837408125 L33.89620717395406,3.11092407029223 L33.75,3.031088913245533 L33.607757138905406,2.944387364909132 L33.46980081650081,2.8510158321761736 L33.336443548227884,2.751185831599755 L33.2079874311915,2.645123510239903 L33.08472345981261,2.533069133367745 L32.966930866632254,2.4152765401873917 L32.854876489760095,2.2920125688084982 L32.748814168400244,2.163556451772119 L32.648984167823826,2.030199183499195 L32.55561263509087,1.8922428610945934 L32.46891108675447,1.7500000000000027 L32.38907592970777,1.6037928260459395 L32.316288016259186,1.4539525455066062 L32.250712234443746,1.3008185948111508 L32.19249713449866,1.1447378716109808 L32.14177459234926,0.9860639489450097 L32.098659510867606,0.8251562742830018 L32.06324955958053,0.6623793552614429 L32.035624953416736,0.49810193395650576 L32.015848270994205,0.3326961515646478 L32.00396431285947,0.16653670538310716 L32.0,9.754499786552888e-15 L32.00396431285947,-0.16653670538308768 L32.015848270994205,-0.3326961515646284 L32.035624953416736,-0.49810193395648655 L32.06324955958053,-0.6623793552614237 L32.0986595108676,-0.8251562742829829 L32.14177459234926,-0.986063948944991 L32.19249713449866,-1.1447378716109624 L32.25071223444374,-1.3008185948111328 L32.31628801625918,-1.4539525455065885 L32.38907592970776,-1.6037928260459222 L32.46891108675446,-1.7499999999999856 L32.55561263509085,-1.892242861094577 L32.64898416782381,-2.030199183499179 L32.74881416840023,-2.1635564517721035 L32.85487648976008,-2.2920125688084836 L32.96693086663224,-2.415276540187378 L33.084723459812594,-2.5330691333677318 L33.20798743119148,-2.6451235102398902 L33.33644354822786,-2.7511858315997437 L33.46980081650079,-2.851015832176164 L33.60775713890539,-2.9443873649091246 L33.749999999999986,-3.0310889132455268 L33.896207173954046,-3.1109240702922247 L34.04604745449338,-3.183711983740808 L34.19918140518884,-3.249287765556249 L34.355262128389015,-3.3075028655013354 L34.51393605105498,-3.358225407650737 L34.674843725717,-3.401340489132393 L34.83762064473856,-3.4367504404194715 L35.001898066043495,-3.464375046583263 L35.16730384843535,-3.484151729005795 L35.33346329461689,-3.4960356871405276 L35.49999999999999,-3.5 L35.666536705383095,-3.4960356871405285 L35.83269615156463,-3.4841517290057964 L35.99810193395649,-3.4643750465832652 L36.162379355261436,-3.4367504404194738 L36.325156274282996,-3.4013404891323966 L36.486063948945,-3.358225407650741 L36.64473787161098,-3.30750286550134 L36.80081859481115,-3.2492877655562538 L36.9539525455066,-3.183711983740814 L37.10379282604594,-3.110924070292231 L37.25,-3.0310889132455334 L37.392242861094594,-2.944387364909132 L37.5301991834992,-2.851015832176172 L37.66355645177212,-2.751185831599752 L37.7920125688085,-2.645123510239899 L37.9152765401874,-2.5330691333677398 L38.03306913336775,-2.4152765401873855 L38.14512351023991,-2.2920125688084902 L38.25118583159976,-2.1635564517721093 L38.35101583217618,-2.030199183499184 L38.44438736490914,-1.892242861094581 L38.53108891324554,-1.7499999999999882 L38.61092407029224,-1.6037928260459233 L38.68371198374082,-1.4539525455065883 L38.74928776555626,-1.300818594811131 L38.80750286550135,-1.1447378716109593 L38.85822540765075,-0.9860639489449864 L38.9013404891324,-0.8251562742829766 L38.93675044041948,-0.6623793552614159 L38.96437504658327,-0.498101933956477 L38.9841517290058,-0.3326961515646173 L38.99603568714053,-0.166536705383075 L39.0,2.401174299220036e-14 " />
			<path d="M55.0,35.0 L63.0,35.0 " />
			<path d="M55.0,35.0 L55.0,34.122476926363824 L55.0,31.53391037658467 L55.0,27.364101886381043 L55.0,21.822143065055677 L55.0,15.185930869114536 L55.0,7.788232688471005 L55.0,2.1431318985078682e-15 L55.0,-7.788232688471002 L55.0,-15.185930869114532 L55.0,-21.822143065055673 L55.0,-27.364101886381043 L55.0,-31.533910376584664 L55.0,-34.122476926363824 L55.0,-34.999999999999986 " />
			<path d="M63.0,35.0 L63.0,34.122476926363824 L63.0,31.53391037658467 L63.0,27.364101886381043 L63.0,21.822143065055677 L63.0,15.185930869114536 L63.0,7.788232688471005 L63.0,2.1431318985078682e-15 L63.0,-7.788232688471002 L63.0,-15.185930869114532 L63.0,-21.822143065055673 L63.0,-27.364101886381043 L63.0,-31.533910376584664 L63.0,-34.122476926363824 L63.0,-34.999999999999986 " />
			<path d="M41.0,1.6770509831248432 L41.0,1.43770062948747 L41.0,1.1982448939054913 L41.0,0.9587013282325725 L41.0,0.719087490760231 L41.0,0.47942094493083426 L41.0,0.23971925805021654 L41.0,1.4149003394608048e-14 L41.0,-0.23971925805018823 L41.0,-0.479420944930806 L41.0,-0.7190874907602026 L41.0,-0.9587013282325441 L41.0,-1.1982448939054633 L41.0,-1.4377006294874417 L41.0,-1.6770509831247775 " />
			<path d="M-55.0,-35.0 L-63.0,-35.0 " />
			<path d="M-55.0,-35.0 L-55.0,-34.122476926363824 L-55.0,-31.53391037658467 L-55.0,-27.364101886381043 L-55.0,-21.822143065055677 L-55.0,-15.185930869114534 L-55.0,-7.788232688471004 L-55.0,-4.286263797015738e-16 L-55.0,7.788232688471004 L-55.0,15.185930869114534 L-55.0,21.822143065055673 L-55.0,27.364101886381043 L-55.0,31.533910376584664 L-55.0,34.122476926363824 L-55.0,34.999999999999986 " />
			<path d="M-63.0,-35.0 L-63.0,-34.122476926363824 L-63.0,-31.533910376584668 L-63.0,-27.36410188638104 L-63.0,-21.822143065055673 L-63.0,-15.185930869114532 L-63.0,-7.788232688471003 L-63.0,5.51091059616309e-16 L-63.0,7.7882326884710045 L-63.0,15.185930869114536 L-63.0,21.822143065055677 L-63.0,27.364101886381047 L-63.0,31.533910376584668 L-63.0,34.122476926363824 L-63.0,34.999999999999986 " />
			<path d="M-41.0,-1.6770509831248432 L-41.0,-1.43770062948747 L-41.0,-1.1982448939054913 L-41.0,-0.9587013282325725 L-41.0,-0.719087490760231 L-41.0,-0.47942094493083426 L-41.0,-0.23971925805021654 L-41.0,-1.4149003394608048e-14 L-41.0,0.23971925805018823 L-41.0,0.479420944930806 L-41.0,0.7190874907602026 L-41.0,0.9587013282325441 L-41.0,1.1982448939054633 L-41.0,1.4377006294874417 L-41.0,1.6770509831247775 " />
			<path d="M-87.99999999999999,8.0 L-84.0,8.0 " />
			<path d="M-76.0,8.0 L-63.0,8.0 " />
			<path d="M63.0,8.0 L76.0,8.0 " />
			<path d="M84.0,8.0 L88.0,8.0 " />
			<path d="M88.0,-8.0 L88.0,-7.799423297454589 L88.0,-7.207750943219353 L88.0,-6.254651859744239 L88.0,-4.98791841486987 L88.0,-3.4710699129404663 L88.0,-1.7801674716505167 L88.0,-1.4695761589768238e-15 L88.0,1.7801674716505138 L88.0,3.4710699129404636 L88.0,4.987918414869867 L88.0,6.2546518597442375 L88.0,7.207750943219352 L88.0,7.799423297454588 L88.0,7.999999999999992 " />
			<path d="M-87.99999999999999,-8.0 L-87.99999999999999,-7.799423297454589 L-87.99999999999999,-7.207750943219353 L-87.99999999999999,-6.254651859744239 L-87.99999999999999,-4.98791841486987 L-87.99999999999999,-3.4710699129404663 L-87.99999999999999,-1.7801674716505167 L-87.99999999999999,-1.4695761589768238e-15 L-87.99999999999999,1.7801674716505138 L-87.99999999999999,3.4710699129404636 L-87.99999999999999,4.987918414869867 L-87.99999999999999,6.2546518597442375 L-87.99999999999999,7.207750943219352 L-87.99999999999999,7.799423297454588 L-87.99999999999999,7.999999999999992 " />
			<path d="M88.0,6.0 L110.0,6.0 " />
			<path d="M-110.0,6.0 L-88.0,6.0 " />
			<path d="M110.0,-10.0 L110.0,10.0 " />
			<path d="M110.0,-10.0 L144.0,-10.0 " />
			<path d="M110.0,10.0 L144.0,10.0 " />
			<path d="M144.0,5.0 L144.0,10.0 " />
			<path d="M144.0,5.0 L123.1,5.0 " />
			<path d="M123.1,-5.0 L123.1,5.0 " />
			<path d="M144.0,-5.0 L123.1,-5.0 " />
			<path d="M144.0,-10.0 L144.0,-5.0 " />
			<path d="M76.0,13.856406460551018 L84.0,13.856406460551018 " />
			<path d="M76.0,6.9282032302755105 L84.0,6.9282032302755105 " />
			<path d="M76.0,13.856406460551018 L76.0,6.9282032302755105 " />
			<path d="M84.0,13.856406460551018 L84.0,6.9282032302755105 " />
			<path d="M76.0,-6.928203230275506 L84.0,-6.928203230275506 " />
			<path d="M76.0,6.9282032302755105 L76.0,-6.928203230275507 " />
			<path d="M84.0,6.9282032302755105 L84.0,-6.928203230275507 " />
			<path d="M76.0,-6.928203230275506 L76.0,-13.856406460551018 " />
			<path d="M84.0,-6.928203230275506 L84.0,-13.856406460551018 " />
			<path d="M76.0,-13.856406460551018 L84.0,-13.856406460551018 " />
			<path d="M-84.0,13.856406460551018 L-76.0,13.856406460551018 " />
			<path d="M-84.0,6.9282032302755105 L-76.0,6.9282032302755105 " />
			<path d="M-84.0,13.856406460551018 L-84.0,6.9282032302755105 " />
			<path d="M-76.0,13.856406460551018 L-76.0,6.9282032302755105 " />
			<path d="M-84.0,-6.928203230275506 L-76.0,-6.928203230275506 " />
			<path d="M-84.0,6.9282032302755105 L-84.0,-6.928203230275507 " />
			<path d="M-76.0,6.9282032302755105 L-76.0,-6.928203230275507 " />
			<path d="M-84.0,-6.928203230275506 L-84.0,-13.856406460551018 " />
			<path d="M-76.0,-6.928203230275506 L-76.0,-13.856406460551018 " />
			<path d="M-84.0,-13.856406460551018 L-76.0,-13.856406460551018 " />
			<path d="M-114.0,12.0 L-110.0,12.0 " />
			<path d="M-114.0,12.0 L-114.0,11.699134946181884 L-114.0,10.81162641482903 L-114.0,9.381977789616357 L-114.0,7.481877622304803 L-114.0,5.2066048694106986 L-114.0,2.6702512074757734 L-114.0,7.347880794884119e-16 L-114.0,-2.670251207475772 L-114.0,-5.206604869410697 L-114.0,-7.481877622304802 L-114.0,-9.381977789616357 L-114.0,-10.811626414829028 L-114.0,-11.699134946181884 L-114.0,-11.999999999999995 " />
			<path d="M-110.0,12.0 L-110.0,11.699134946181884 L-110.0,10.81162641482903 L-110.0,9.381977789616357 L-110.0,7.481877622304803 L-110.0,5.2066048694106986 L-110.0,2.6702512074757734 L-110.0,7.347880794884119e-16 L-110.0,-2.670251207475772 L-110.0,-5.206604869410697 L-110.0,-7.481877622304802 L-110.0,-9.381977789616357 L-110.0,-10.811626414829028 L-110.0,-11.699134946181884 L-110.0,-11.999999999999995 " />
			<path d="M55.0,-35.0 L-55.0,-35.0 " />
			<path d="M63.0,-35.0 L55.0,-35.0 " />
			<path d="M-62.99999999999999,35.0 L-54.99999999999999,35.0 " />
			<path d="M88.0,-8.0 L84.0,-8.0 " />
			<path d="M76.0,-8.0 L63.0,-8.0 " />
			<path d="M-63.0,-8.0 L-76.0,-8.0 " />
			<path d="M-84.0,-8.0 L-87.99999999999999,-8.0 " />
			<path d="M110.0,-6.0 L88.0,-6.0 " />
			<path d="M-88.0,-6.0 L-110.0,-6.0 " />
			<path d="M-110.0,-12.0 L-114.0,-12.0 " />

       </g>
    </g>
    
</svg>
