<?xml version="1.0" encoding="UTF-8" standalone="no"?>
<svg
   xmlns:svg="http://www.w3.org/2000/svg"
   xmlns="http://www.w3.org/2000/svg"
   width="1100.0"
   height="520.0"

>
    <g transform="scale(2.806122448025129, -2.806122448025129)   translate(171.12727272969698,-42.127272829696985)" stroke-width="0.6"  fill="none">
       <!-- hidden lines -->
       <g  stroke="rgb(170,170,170)" fill="none" stroke-dasharray="0.6,0.6" >

       </g>

       <!-- solid lines -->
       <g  stroke="rgb(20,20,20)" fill="none">
			<path d="M54.99999999999999,-35.00000000000001 L54.99999999999999,-34.12247692636383 L55.0,-31.53391037658468 L55.0,-27.364101886381054 L55.0,-21.822143065055684 L55.0,-15.185930869114543 L55.0,-7.788232688471014 L55.0,-1.0392490432454097e-14 L55.0,7.788232688470994 L55.0,15.185930869114525 L55.0,21.822143065055663 L55.0,27.364101886381032 L55.0,31.533910376584657 L55.00000000000001,34.12247692636382 L55.00000000000001,34.99999999999996 " />
			<path d="M-55.00000000000001,-34.99999999999999 L-55.00000000000001,-34.12247692636382 L-55.0,-31.533910376584664 L-55.0,-27.36410188638104 L-55.0,-21.82214306505567 L-55.0,-15.185930869114532 L-55.0,-7.788232688471002 L-55.0,1.8199628384226245e-15 L-55.0,7.788232688471006 L-55.0,15.185930869114536 L-55.0,21.822143065055677 L-55.0,27.364101886381047 L-55.0,31.53391037658467 L-54.99999999999999,34.12247692636383 L-54.99999999999999,34.99999999999997 " />
			<path d="M-22.500000000000004,-32.49615361854384 L-22.500000000000004,-32.83747107297554 L-22.500000000000004,-33.1545277935155 L-22.500000000000004,-33.44708953469735 L-22.500000000000004,-33.71494014825151 L-22.500000000000004,-33.95788174279823 L-22.500000000000004,-34.175734830052214 L-22.500000000000004,-34.3683384574308 L-22.500000000000004,-34.53555032696773 L-22.500000000000004,-34.67724690044469 L-22.500000000000004,-34.79332349066288 L-22.500000000000004,-34.883694338787215 L-22.500000000000004,-34.94829267770602 L-22.500000000000004,-34.987070781359435 L-22.500000000000004,-34.99999999999999 " />
			<path d="M-48.50000000000001,-32.496153618543836 L-22.500000000000007,-32.49615361854384 " />
			<path d="M-48.50000000000001,-32.496153618543836 L-48.50000000000001,-32.83747107297553 L-48.50000000000001,-33.15452779351549 L-48.50000000000001,-33.44708953469734 L-48.50000000000001,-33.7149401482515 L-48.50000000000001,-33.95788174279822 L-48.50000000000001,-34.17573483005221 L-48.50000000000001,-34.368338457430795 L-48.50000000000001,-34.53555032696772 L-48.50000000000001,-34.677246900444686 L-48.50000000000001,-34.79332349066287 L-48.50000000000001,-34.88369433878721 L-48.50000000000001,-34.948292677706014 L-48.50000000000001,-34.98707078135943 L-48.50000000000001,-34.999999999999986 " />
			<path d="M48.49999999999999,-32.49615361854385 L48.49999999999999,-32.837471072975546 L48.49999999999999,-33.154527793515506 L48.49999999999999,-33.447089534697355 L48.49999999999999,-33.714940148251515 L48.49999999999999,-33.957881742798236 L48.49999999999999,-34.17573483005222 L48.49999999999999,-34.36833845743081 L48.49999999999999,-34.53555032696774 L48.49999999999999,-34.6772469004447 L48.49999999999999,-34.793323490662885 L48.49999999999999,-34.88369433878722 L48.49999999999999,-34.94829267770603 L48.49999999999999,-34.98707078135944 L48.49999999999999,-35.0 " />
			<path d="M22.499999999999993,-32.49615361854384 L48.49999999999999,-32.49615361854385 " />
			<path d="M22.499999999999996,-32.49615361854384 L22.499999999999996,-32.83747107297554 L22.499999999999996,-33.1545277935155 L22.499999999999996,-33.44708953469735 L22.499999999999996,-33.71494014825151 L22.499999999999996,-33.95788174279823 L22.499999999999996,-34.175734830052214 L22.499999999999996,-34.3683384574308 L22.499999999999996,-34.53555032696773 L22.499999999999996,-34.67724690044469 L22.499999999999996,-34.79332349066288 L22.499999999999996,-34.883694338787215 L22.499999999999996,-34.94829267770602 L22.499999999999996,-34.987070781359435 L22.499999999999996,-34.99999999999999 " />
			<path d="M50.00000000000001,34.99999999999999 L50.00000000000001,34.973950681340945 L50.00000000000001,34.8958415006211 L50.00000000000001,34.7657887258941 L50.00000000000001,34.583985944941155 L50.00000000000001,34.350703777109366 L50.00000000000001,34.06628947048601 L50.00000000000001,33.73116638500849 L50.00000000000001,33.345833362279286 L50.00000000000001,32.91086398302405 L50.00000000000001,32.426905713298055 L50.0,31.89467894071192 L50.0,31.314975902111236 L50.0,30.688659504306294 L50.0,30.01666203960734 " />
			<path d="M-50.0,30.016662039607272 L50.0,30.01666203960726 " />
			<path d="M-49.99999999999999,35.00000000000001 L-49.99999999999999,34.97395068134096 L-49.99999999999999,34.89584150062112 L-49.99999999999999,34.76578872589411 L-49.99999999999999,34.58398594494117 L-49.99999999999999,34.35070377710938 L-49.99999999999999,34.066289470486026 L-49.99999999999999,33.73116638500851 L-49.99999999999999,33.3458333622793 L-49.99999999999999,32.910863983024065 L-49.99999999999999,32.42690571329807 L-50.0,31.894678940711934 L-50.0,31.31497590211125 L-50.0,30.688659504306308 L-50.0,30.016662039607354 " />
			<path d="M-55.00000000000001,-35.0 L-55.00000000000001,-34.12247692636382 L-55.0,-31.533910376584657 L-55.0,-27.364101886381036 L-55.0,-21.82214306505567 L-55.0,-15.185930869114529 L-55.0,-7.788232688470998 L-55.0,0.0 L-55.0,7.788232688471005 L-55.0,15.185930869114536 L-55.0,21.822143065055677 L-55.0,27.364101886381047 L-55.0,31.53391037658467 L-54.99999999999999,34.12247692636383 L-54.99999999999999,34.99999999999997 " />
			<path d="M-63.00000000000001,-35.0 L-63.00000000000001,-34.12247692636382 L-63.0,-31.533910376584657 L-63.0,-27.364101886381036 L-63.0,-21.82214306505567 L-63.0,-15.185930869114529 L-63.0,-7.788232688470998 L-63.0,0.0 L-63.0,7.788232688471005 L-63.0,15.185930869114536 L-63.0,21.822143065055677 L-63.0,27.364101886381047 L-63.0,31.53391037658467 L-62.99999999999999,34.12247692636383 L-62.99999999999999,34.99999999999997 " />
			<path d="M55.00000000000001,-7.105427357601002e-15 L55.00000000000001,-3.9187566636157882 L55.0,-7.7882326884710125 L55.0,-11.559767168430856 L55.0,-15.18593086911454 L55.0,-18.621122678036787 L55.0,-21.82214306505568 L55.0,-24.748737341529168 L55.0,-27.36410188638105 L55.0,-29.63534697298995 L55.0,-31.53391037658468 L55.0,-33.03591656079287 L55.0,-34.12247692636383 L55.0,-34.7799273462635 L54.99999999999999,-35.0 " />
			<path d="M55.00000000000001,35.0 L55.00000000000001,34.77992734626349 L55.00000000000001,34.12247692636382 L55.00000000000001,33.035916560792856 L55.00000000000001,31.53391037658467 L55.00000000000001,29.635346972989936 L55.00000000000001,27.364101886381036 L55.00000000000001,24.748737341529164 L55.00000000000001,21.822143065055677 L55.00000000000001,18.621122678036777 L55.00000000000001,15.185930869114529 L55.00000000000001,11.559767168430845 L55.00000000000001,7.788232688471005 L55.00000000000001,3.918756663615774 L55.00000000000001,3.099742684753437e-13 " />
			<path d="M63.00000000000001,-7.105427357601002e-15 L63.00000000000001,-3.9187566636157882 L63.0,-7.7882326884710125 L63.0,-11.559767168430856 L63.0,-15.18593086911454 L63.0,-18.621122678036787 L63.0,-21.82214306505568 L63.0,-24.748737341529168 L63.0,-27.36410188638105 L63.0,-29.63534697298995 L63.0,-31.53391037658468 L63.0,-33.03591656079287 L63.0,-34.12247692636383 L63.0,-34.7799273462635 L62.99999999999999,-35.0 " />
			<path d="M63.00000000000001,35.0 L63.00000000000001,34.77992734626349 L63.00000000000001,34.12247692636382 L63.00000000000001,33.035916560792856 L63.00000000000001,31.53391037658467 L63.00000000000001,29.635346972989936 L63.00000000000001,27.364101886381036 L63.00000000000001,24.748737341529164 L63.00000000000001,21.822143065055677 L63.00000000000001,18.621122678036777 L63.00000000000001,15.185930869114529 L63.00000000000001,11.559767168430845 L63.00000000000001,7.788232688471005 L63.00000000000001,3.918756663615774 L63.00000000000001,3.099742684753437e-13 " />
			<path d="M-108.0,8.000000000000012 L-108.0,7.7994232974546005 L-108.0,7.207750943219365 L-108.0,6.254651859744252 L-108.0,4.987918414869881 L-108.0,3.471069912940478 L-108.0,1.780167471650528 L-108.0,1.2970126105269573e-14 L-108.0,-1.7801674716505023 L-108.0,-3.471069912940452 L-108.0,-4.9879184148698545 L-108.0,-6.254651859744225 L-108.0,-7.20775094321934 L-108.0,-7.799423297454577 L-108.0,-7.99999999999998 " />
			<path d="M130.0,-6.000000000000014 L130.0,-5.849567473090956 L130.0,-5.405813207414529 L130.0,-4.690988894808194 L130.0,-3.740938811152416 L130.0,-2.6033024347053635 L130.0,-1.3351256037379013 L130.0,-1.5167687399615446e-14 L130.0,1.3351256037378711 L130.0,2.6033024347053333 L130.0,3.740938811152386 L130.0,4.690988894808164 L130.0,5.4058132074145 L130.0,5.849567473090928 L130.0,5.99999999999998 " />
			<path d="M-130.0,12.000000000000028 L-130.0,-11.999999999999972 " />
			<path d="M-130.0,12.000000000000028 L-164.0,12.000000000000032 " />
			<path d="M-164.0,12.000000000000028 L-164.0,-11.999999999999972 " />
			<path d="M-130.0,-11.999999999999972 L-164.0,-11.999999999999968 " />
			<path d="M-158.8,2.8976820942716586e-14 L-158.79604698613653,0.19878257548465714 L-158.7841941950735,0.39725083485860085 L-158.76446036850987,0.5950909590095529 L-158.73687670968167,0.7919901220361039 L-158.7014868340232,0.9876369858897923 L-158.65834670020206,1.1817221926645534 L-158.60752452163712,1.3739388537551553 L-158.54910065863893,1.5639830351111648 L-158.48316749134366,1.7515542378191504 L-158.40982927364104,1.9363558732532344 L-158.32920196832762,2.11809573204267 L-158.24141306374568,2.2964864461149186 L-158.14660137219792,2.4712459430836438 L-158.04491681045684,2.6420978922631266 L-157.93652016271528,2.8087721416038836 L-157.82158282635385,2.9710051448585815 L-157.70028654092607,3.128540378302829 L-157.57282310079117,3.2811287463519077 L-157.43939405184747,3.428528975432095 L-157.30021037284715,3.570507995483778 L-157.1554921417952,3.7068413084931207 L-157.0054681879611,3.8373133434695696 L-156.85037573005263,3.9617177973079016 L-156.69046000112425,4.0798579609958345 L-156.52597386081334,4.191547030651412 L-156.3571773955171,4.296608402898334 L-156.18433750714254,4.394875954112198 L-156.00772749107958,4.48619430309609 L-155.827626604065,4.570419056770202 L-155.64431962262006,4.647417038486964 L-155.45809639276035,4.717066498610701 L-155.26925137168962,4.779257307028832 L-155.07808316220238,4.833891127290213 L-154.8848940405316,4.880881572095282 L-154.68998947838776,4.9201543398921315 L-154.49367765994535,4.951647332362537 L-154.29626899454033,4.975310752612166 L-154.0980756258491,4.991107183909693 L-153.89941093832536,4.999011648850356 L-153.70058906167466,4.999011648850356 L-153.50192437415092,4.991107183909694 L-153.3037310054597,4.975310752612166 L-153.10632234005467,4.951647332362539 L-152.91001052161226,4.920154339892132 L-152.71510595946842,4.8808815720952845 L-152.52191683779765,4.833891127290216 L-152.3307486283104,4.779257307028835 L-152.14190360723967,4.717066498610704 L-151.95568037738,4.647417038486967 L-151.77237339593506,4.570419056770206 L-151.59227250892047,4.486194303096093 L-151.41566249285748,4.394875954112201 L-151.2428226044829,4.296608402898337 L-151.07402613918669,4.191547030651415 L-150.90953999887577,4.079857960995836 L-150.7496242699474,3.961717797307902 L-150.59453181203892,3.83731334346957 L-150.44450785820484,3.7068413084931215 L-150.29978962715288,3.5705079954837786 L-150.16060594815255,3.4285289754320956 L-150.02717689920885,3.2811287463519068 L-149.89971345907395,3.1285403783028283 L-149.77841717364618,2.9710051448585806 L-149.6634798372847,2.808772141603882 L-149.55508318954318,2.642097892263125 L-149.4533986278021,2.4712459430836407 L-149.35858693625434,2.2964864461149155 L-149.2707980316724,2.1180957320426654 L-149.19017072635899,1.9363558732532296 L-149.11683250865636,1.7515542378191453 L-149.0508993413611,1.5639830351111588 L-148.9924754783629,1.373938853755149 L-148.94165329979796,1.181722192664546 L-148.89851316597682,0.9876369858897841 L-148.86312329031836,0.791990122036095 L-148.83553963149015,0.5950909590095433 L-148.81580580492653,0.3972508348585906 L-148.8039530138635,0.19878257548464623 L-148.8,1.737669107141354e-14 L-148.8039530138635,-0.19878257548461142 L-148.81580580492653,-0.3972508348585557 L-148.83553963149015,-0.5950909590095085 L-148.86312329031836,-0.79199012203606 L-148.89851316597682,-0.9876369858897491 L-148.94165329979796,-1.1817221926645105 L-148.9924754783629,-1.3739388537551132 L-149.05089934136112,-1.5639830351111228 L-149.1168325086564,-1.751554237819109 L-149.19017072635899,-1.9363558732531931 L-149.2707980316724,-2.1180957320426286 L-149.35858693625437,-2.2964864461148777 L-149.4533986278021,-2.4712459430836033 L-149.5550831895432,-2.6420978922630867 L-149.66347983728474,-2.808772141603843 L-149.7784171736462,-2.9710051448585415 L-149.89971345907398,-3.1285403783027887 L-150.02717689920888,-3.2811287463518672 L-150.16060594815255,-3.4285289754320547 L-150.2997896271529,-3.5705079954837373 L-150.44450785820484,-3.7068413084930794 L-150.59453181203892,-3.8373133434695266 L-150.74962426994742,-3.961717797307858 L-150.9095399988758,-4.079857960995791 L-151.07402613918669,-4.191547030651368 L-151.2428226044829,-4.29660840289829 L-151.4156624928575,-4.394875954112153 L-151.59227250892047,-4.4861943030960445 L-151.77237339593506,-4.570419056770156 L-151.95568037738,-4.647417038486918 L-152.1419036072397,-4.717066498610654 L-152.33074862831043,-4.779257307028784 L-152.52191683779768,-4.8338911272901655 L-152.71510595946845,-4.880881572095232 L-152.9100105216123,-4.920154339892081 L-153.1063223400547,-4.951647332362485 L-153.30373100545972,-4.975310752612112 L-153.50192437415095,-4.991107183909639 L-153.7005890616747,-4.9990116488503 L-153.8994109383254,-4.999011648850299 L-154.09807562584913,-4.991107183909635 L-154.29626899454036,-4.975310752612105 L-154.49367765994538,-4.951647332362476 L-154.6899894783878,-4.920154339892068 L-154.88489404053163,-4.880881572095218 L-155.07808316220243,-4.833891127290148 L-155.26925137168965,-4.7792573070287645 L-155.45809639276038,-4.717066498610631 L-155.6443196226201,-4.647417038486892 L-155.82762660406502,-4.5704190567701275 L-156.0077274910796,-4.486194303096014 L-156.18433750714257,-4.39487595411212 L-156.35717739551717,-4.296608402898254 L-156.5259738608134,-4.19154703065133 L-156.69046000112428,-4.079857960995751 L-156.85037573005266,-3.961717797307815 L-157.00546818796116,-3.8373133434694813 L-157.15549214179524,-3.7068413084930305 L-157.30021037284718,-3.5705079954836867 L-157.43939405184753,-3.428528975432002 L-157.5728231007912,-3.2811287463518126 L-157.7002865409261,-3.128540378302732 L-157.82158282635388,-2.9710051448584833 L-157.93652016271534,-2.808772141603783 L-158.04491681045687,-2.6420978922630245 L-158.14660137219795,-2.4712459430835403 L-158.24141306374568,-2.2964864461148133 L-158.32920196832765,-2.118095732042563 L-158.40982927364107,-1.9363558732531263 L-158.48316749134366,-1.751554237819041 L-158.54910065863893,-1.563983035111054 L-158.60752452163712,-1.3739388537550437 L-158.6583467002021,-1.1817221926644403 L-158.7014868340232,-0.987636985889678 L-158.7368767096817,-0.7919901220359883 L-158.76446036850987,-0.5950909590094364 L-158.7841941950735,-0.39725083485848345 L-158.79604698613653,-0.19878257548453893 L-158.8,8.9924663522578e-14 " />
			<path d="M-76.0,-11.999999999999986 L-84.0,-11.999999999999986 " />
			<path d="M-76.0,-11.999999999999986 L-76.0,1.2434497875801753e-14 " />
			<path d="M-76.0,1.4210854715202004e-14 L-76.0,12.00000000000001 " />
			<path d="M-84.0,-11.999999999999986 L-84.0,1.2434497875801753e-14 " />
			<path d="M-84.0,1.4210854715202004e-14 L-84.0,12.00000000000001 " />
			<path d="M-76.0,12.000000000000007 L-84.0,12.000000000000007 " />
			<path d="M-76.0,1.4210854715202004e-14 L-84.0,1.509903313490213e-14 " />
			<path d="M71.0,-22.000000000000007 L71.0,-21.448414068000126 L71.0,-19.82131509385323 L71.0,-17.200292614296664 L71.0,-13.716775640892147 L71.0,-9.545442260586288 L71.0,-4.895460547038927 L71.0,-1.0576806432962788e-14 L71.0,4.8954605470389065 L71.0,9.545442260586269 L71.0,13.716775640892127 L71.0,17.200292614296647 L71.0,19.82131509385321 L71.0,21.448414068000112 L71.0,21.99999999999997 " />
			<path d="M119.0,-22.000000000000014 L119.0,-21.448414068000133 L119.0,-19.821315093853237 L119.0,-17.20029261429667 L119.0,-13.716775640892152 L119.0,-9.545442260586293 L119.0,-4.895460547038932 L119.0,-1.590587695116354e-14 L119.0,4.895460547038901 L119.0,9.545442260586263 L119.0,13.716775640892122 L119.0,17.20029261429664 L119.0,19.821315093853205 L119.0,21.448414068000105 L119.0,21.999999999999964 " />
			<path d="M71.0,-22.000000000000007 L71.0,-21.448414068000126 L71.0,-19.82131509385323 L71.0,-17.200292614296664 L71.0,-13.716775640892147 L71.0,-9.545442260586288 L71.0,-4.895460547038927 L71.0,-1.0576806432962788e-14 L71.0,4.8954605470389065 L71.0,9.545442260586269 L71.0,13.716775640892127 L71.0,17.200292614296647 L71.0,19.82131509385321 L71.0,21.448414068000112 L71.0,21.99999999999997 " />
			<path d="M123.0,-12.000000000000014 L123.0,-11.699134946181898 L123.0,-10.811626414829044 L123.0,-9.381977789616373 L123.0,-7.4818776223048165 L123.0,-5.206604869410712 L123.0,-2.6702512074757876 L123.0,-1.512531936186625e-14 L123.0,2.6702512074757574 L123.0,5.206604869410683 L123.0,7.481877622304787 L123.0,9.381977789616343 L123.0,10.811626414829014 L123.0,11.69913494618187 L123.0,11.999999999999973 " />
			<path d="M128.0,-12.000000000000014 L128.0,-11.6991349461819 L128.0,-10.81162641482905 L128.0,-9.381977789616371 L128.0,-7.481877622304822 L128.0,-5.206604869410711 L128.0,-2.6702512074757863 L128.0,-1.4210854715202004e-14 L128.0,2.670251207475758 L128.0,5.206604869410683 L128.0,7.481877622304779 L128.0,9.381977789616343 L128.0,10.811626414829021 L128.0,11.699134946181857 L128.0,11.999999999999988 " />
			<path d="M124.0,-12.000000000000014 L124.0,-11.6991349461819 L124.0,-10.81162641482905 L124.0,-9.381977789616371 L124.0,-7.481877622304822 L124.0,-5.206604869410711 L124.0,-2.6702512074757863 L124.0,-1.4210854715202004e-14 L124.0,2.670251207475758 L124.0,5.206604869410683 L124.0,7.481877622304779 L124.0,9.381977789616343 L124.0,10.811626414829021 L124.0,11.699134946181857 L124.0,11.999999999999988 " />
			<path d="M-55.00000000000001,-34.99999999999999 L-48.50000000000001,-34.99999999999999 " />
			<path d="M-22.500000000000007,-35.0 L22.499999999999993,-35.0 " />
			<path d="M48.5,-35.00000000000001 L54.99999999999999,-35.00000000000001 " />
			<path d="M-54.99999999999999,35.00000000000001 L-49.99999999999999,35.00000000000001 " />
			<path d="M50.0,34.99999999999999 L55.00000000000001,34.99999999999999 " />
			<path d="M-63.0,-34.99999999999999 L-55.00000000000001,-34.99999999999999 " />
			<path d="M-63.0,35.00000000000001 L-54.99999999999999,35.00000000000001 " />
			<path d="M63.0,34.99999999999999 L55.00000000000001,34.99999999999999 " />
			<path d="M63.0,-35.00000000000001 L54.99999999999999,-35.00000000000001 " />
			<path d="M-108.0,-7.999999999999988 L-84.0,-7.99999999999999 " />
			<path d="M-76.0,-7.999999999999991 L-63.0,-7.999999999999993 " />
			<path d="M-108.0,8.000000000000012 L-84.0,8.000000000000009 " />
			<path d="M-76.0,8.000000000000009 L-63.0,8.000000000000007 " />
			<path d="M-130.0,-5.999999999999985 L-108.0,-5.999999999999988 " />
			<path d="M-130.0,6.000000000000015 L-108.0,6.000000000000012 " />
			<path d="M123.0,-6.000000000000013 L124.0,-6.000000000000013 " />
			<path d="M128.0,-6.000000000000014 L130.0,-6.000000000000014 " />
			<path d="M123.0,5.999999999999987 L124.0,5.999999999999987 " />
			<path d="M128.0,5.999999999999986 L130.0,5.999999999999986 " />
			<path d="M63.0,-22.000000000000007 L71.0,-22.000000000000007 " />
			<path d="M63.0,21.999999999999993 L71.0,21.999999999999993 " />
			<path d="M71.0,-22.000000000000007 L119.0,-22.000000000000014 " />
			<path d="M71.0,21.999999999999993 L119.0,21.999999999999986 " />
			<path d="M119.0,-12.000000000000014 L123.0,-12.000000000000014 " />
			<path d="M119.0,11.999999999999986 L123.0,11.999999999999986 " />
			<path d="M124.0,-12.000000000000014 L128.0,-12.000000000000014 " />
			<path d="M124.0,11.999999999999986 L128.0,11.999999999999986 " />

       </g>
    </g>
    
</svg>
